<?xml version="1.0" standalone="no"?>
<!DOCTYPE svg PUBLIC "-//W3C//DTD SVG 20010904//EN"
 "http://www.w3.org/TR/2001/REC-SVG-20010904/DTD/svg10.dtd">
<svg version="1.0" xmlns="http://www.w3.org/2000/svg"
 width="700.000000pt" height="700.000000pt" viewBox="0 0 700.000000 700.000000"
 preserveAspectRatio="xMidYMid meet">
<metadata>
Created by potrace 1.11, written by Peter Selinger 2001-2013
</metadata>
<g transform="translate(0.000000,700.000000) scale(0.100000,-0.100000)"
fill="#000000" stroke="none">
<path d="M2266 6471 c-9 -15 5 -124 20 -153 8 -15 28 -35 44 -43 17 -9 31 -21
31 -28 4 -45 -17 -107 -37 -107 -19 0 -34 41 -34 90 0 33 -5 42 -30 57 -29 17
-50 61 -50 105 0 18 -28 38 -54 38 -11 0 -16 -10 -16 -33 0 -37 -20 -78 -70
-142 -44 -56 -68 -65 -92 -35 -10 12 -18 33 -18 46 0 12 -4 25 -9 29 -24 14
-43 -339 -26 -470 4 -27 20 -89 36 -136 32 -96 36 -137 14 -145 -8 -4 -15 -12
-15 -20 0 -7 43 -96 95 -198 52 -101 95 -189 95 -194 0 -6 -26 -18 -57 -27
-89 -25 -232 -98 -319 -163 -71 -52 -110 -91 -290 -292 -28 -31 -70 -90 -94
-131 -23 -41 -84 -138 -136 -215 -109 -164 -122 -191 -140 -298 -9 -48 -26
-100 -43 -130 -32 -57 -73 -165 -95 -253 -35 -137 -45 -240 -46 -469 0 -157
-3 -211 -16 -245 -19 -54 -22 -171 -6 -220 15 -44 98 -127 112 -113 7 7 -2 28
-25 64 l-34 54 4 135 c4 135 21 236 40 236 5 0 19 -28 31 -63 12 -34 29 -71
38 -81 17 -18 61 -33 70 -24 3 3 -9 31 -25 62 -18 35 -27 64 -23 74 6 17 8 17
25 1 18 -16 19 -16 19 4 0 12 -5 33 -12 47 -10 22 -9 28 3 36 19 12 22 11 43
-4 15 -11 18 -26 17 -80 -2 -80 12 -87 54 -27 27 39 28 42 15 93 -27 115 18
387 65 387 25 0 34 -34 30 -118 -1 -45 0 -82 5 -82 10 0 35 31 48 63 15 35 15
74 1 129 -9 37 -7 59 20 162 16 65 38 130 47 144 15 23 17 24 27 7 6 -11 8
-69 4 -152 -3 -78 -1 -135 4 -139 5 -3 19 16 32 43 19 41 22 66 23 173 1 109
4 131 23 168 25 49 23 59 -9 42 -42 -22 -35 2 12 43 43 38 98 130 98 165 0 6
3 12 8 12 4 0 15 11 25 25 17 23 17 24 -5 20 -42 -9 -73 -41 -113 -119 -40
-78 -75 -115 -75 -79 0 18 106 261 148 338 l21 40 1 -35 0 -34 28 30 c41 46
111 141 114 156 2 7 -3 12 -9 10 -37 -7 23 104 101 186 60 64 187 135 200 113
3 -5 -43 -55 -102 -113 -123 -120 -162 -164 -162 -184 0 -8 7 -14 15 -14 26 0
16 -24 -38 -90 -62 -76 -97 -131 -97 -153 0 -57 103 -13 154 66 18 26 18 27
-3 27 -18 0 -19 3 -11 26 31 81 138 209 224 266 33 23 67 48 74 55 8 7 29 25
48 40 33 25 36 25 52 9 16 -17 14 -20 -28 -56 -24 -22 -41 -43 -36 -47 16 -16
116 -4 156 18 42 24 50 47 25 73 -28 27 4 28 50 1 43 -25 59 -55 35 -70 -14
-9 -2 -31 19 -32 29 -2 91 -45 160 -109 68 -63 105 -122 91 -144 -12 -19 -55
2 -172 81 -48 32 -92 59 -98 59 -18 0 -11 19 15 36 31 20 33 44 3 39 -12 -3
-62 -7 -112 -10 -50 -4 -102 -9 -116 -11 -24 -5 -24 -6 -6 -20 11 -8 31 -14
45 -14 l26 0 -25 -20 c-14 -11 -38 -22 -55 -26 -17 -4 -62 -38 -111 -85 -53
-51 -94 -81 -113 -85 l-31 -7 20 -31 c22 -36 17 -73 -12 -94 -14 -11 -17 -21
-12 -52 6 -35 3 -43 -25 -69 -17 -16 -31 -39 -31 -53 0 -32 -11 -45 -43 -53
-27 -7 -27 -8 -9 -21 11 -7 22 -22 25 -33 6 -24 -15 -33 -58 -25 l-30 5 21
-23 c30 -33 35 -51 41 -162 6 -115 16 -154 37 -137 11 9 11 4 2 -30 -9 -36 -9
-42 9 -55 91 -64 150 -127 138 -147 -6 -10 -135 -4 -165 8 -9 4 -19 17 -22 31
-7 25 -44 41 -71 30 -20 -7 -19 -56 1 -85 9 -12 41 -38 71 -58 62 -39 66 -62
15 -79 -55 -17 -58 -27 -25 -81 17 -27 34 -59 37 -71 l8 -23 19 25 c26 32 78
51 86 30 3 -8 -1 -22 -10 -32 -36 -42 -63 -132 -39 -132 4 0 28 21 52 46 72
73 148 112 183 92 25 -13 21 -24 -23 -72 -22 -24 -40 -48 -40 -55 0 -14 40
-14 77 0 74 29 207 6 241 -42 18 -27 38 -13 51 34 37 133 -7 204 -79 127 -27
-29 -28 -29 -59 -14 -17 8 -31 23 -31 33 0 24 38 56 83 71 26 8 46 23 58 45
15 24 25 32 40 28 31 -9 30 -18 -6 -58 -19 -21 -35 -41 -35 -45 0 -4 27 3 60
17 33 13 88 26 123 29 34 4 66 10 71 14 12 12 -2 30 -24 30 -26 0 -31 12 -17
40 9 17 27 27 69 36 33 8 80 29 109 49 61 42 83 44 106 9 22 -34 43 -29 158
35 50 27 122 61 160 76 209 79 371 185 415 270 23 46 25 58 24 180 -2 195 -27
258 -108 270 -87 12 -125 29 -263 118 -40 26 -96 59 -125 74 -95 48 -106 59
-118 118 -12 56 -52 104 -88 106 -9 0 -27 2 -40 5 -12 2 -48 -5 -79 -16 -90
-31 -103 -28 -145 40 l-15 25 38 -3 c55 -6 51 16 -14 83 -65 67 -92 73 -84 18
3 -21 9 -51 13 -67 l7 -29 -33 19 c-48 27 -120 98 -120 117 0 21 31 22 69 2
16 -8 31 -11 35 -8 10 10 7 42 -6 62 -10 17 -6 27 31 75 47 60 115 126 131
126 17 0 11 28 -7 32 -42 10 -119 -47 -164 -119 -25 -40 -44 -43 -35 -6 13 51
68 114 137 160 l70 44 -48 25 c-26 13 -51 24 -55 24 -4 0 -19 -25 -34 -55 -28
-56 -59 -93 -70 -82 -9 9 14 115 35 157 14 31 21 35 54 36 51 1 63 15 42 48
-14 21 -17 47 -17 123 1 67 -3 104 -13 122 -8 14 -20 39 -25 55 -14 38 -18 31
-25 -35 -3 -30 -10 -68 -16 -85 -8 -26 -6 -39 11 -72 26 -49 22 -57 -50 -126
-28 -27 -79 -88 -112 -135 -81 -115 -81 -115 -74 -54 11 92 41 156 102 215 93
88 97 125 28 234 -41 65 -87 197 -110 319 -27 145 -34 169 -47 156 -7 -7 -10
-39 -9 -81 2 -58 0 -70 -13 -70 -28 0 -58 102 -56 190 0 19 11 60 24 91 19 46
22 72 21 150 -1 132 -8 155 -56 190 -44 31 -54 34 -62 20z m-6 -677 c0 -25
-22 -32 -47 -16 -17 11 -23 53 -10 76 9 19 11 19 33 -8 13 -15 24 -38 24 -52z
m146 -213 c8 -22 26 -48 40 -58 27 -20 31 -45 10 -62 -8 -7 -17 -27 -20 -46
-6 -28 -11 -35 -31 -35 -25 0 -38 13 -40 42 -1 10 -9 26 -19 36 -18 21 -11 32
28 46 17 6 17 8 1 32 -11 17 -14 35 -10 55 9 40 22 36 41 -10z m125 -191 c-3
-39 -20 -75 -64 -139 -22 -32 -32 -40 -38 -30 -16 25 -9 60 26 135 30 65 38
75 57 72 20 -3 23 -8 19 -38z m-677 -606 c9 -23 -20 -78 -52 -96 -33 -20 -92
-32 -92 -20 0 11 120 132 131 132 4 0 10 -7 13 -16z m-184 -224 c0 -17 -7 -41
-15 -54 -20 -30 -94 -83 -129 -92 l-28 -7 15 29 c18 34 133 154 147 154 6 0
10 -14 10 -30z m833 -117 c37 -30 78 -71 91 -91 21 -33 35 -41 145 -80 l121
-44 29 31 29 31 103 -4 c153 -6 303 -58 392 -137 35 -30 52 -57 81 -131 21
-51 40 -118 43 -149 5 -54 4 -58 -31 -96 -23 -26 -77 -61 -158 -104 -68 -35
-130 -65 -138 -67 -170 -41 -368 55 -453 218 -55 105 -45 214 28 323 19 28 32
54 30 58 -3 4 -35 12 -71 18 -36 7 -76 18 -88 26 -11 8 -52 26 -89 40 -37 14
-95 39 -127 55 -33 17 -64 30 -69 30 -5 0 -22 5 -38 11 -27 10 -28 11 -8 25
14 10 20 27 20 51 0 30 4 36 24 40 14 2 27 5 29 8 8 8 39 -10 105 -62z m402
17 c-6 -10 7 -20 37 -25 20 -4 37 -21 38 -37 0 -16 -22 -18 -49 -3 -41 21 -51
19 -51 -10 0 -27 -26 -35 -47 -14 -16 16 3 67 28 74 10 4 19 13 19 20 0 9 6
12 15 9 8 -4 13 -10 10 -14z m-575 -143 c14 -9 54 -19 90 -23 36 -4 94 -19
130 -33 69 -28 180 -95 180 -109 0 -4 -17 -28 -37 -54 -21 -25 -43 -54 -48
-63 -10 -17 -13 -17 -57 2 -25 12 -49 18 -54 14 -5 -3 -16 -26 -24 -51 -11
-33 -21 -46 -37 -48 -15 -2 -24 -11 -24 -25 -4 -52 0 -80 13 -93 11 -12 17
-10 39 10 14 13 40 31 57 40 38 20 41 33 7 42 -31 8 -32 28 -3 48 29 20 78 21
78 2 0 -8 -4 -18 -10 -21 -17 -11 -11 -32 11 -38 29 -8 21 -41 -11 -45 -33 -5
-40 -13 -46 -51 -6 -37 8 -40 30 -6 18 28 47 32 66 10 18 -21 -2 -42 -54 -57
-57 -16 -62 -23 -34 -51 l24 -24 -69 -28 c-37 -16 -73 -35 -78 -42 -15 -17 -2
-33 25 -33 13 0 37 -3 54 -6 27 -5 30 -11 36 -56 4 -27 10 -48 14 -46 47 23
85 40 125 57 40 17 48 24 45 43 -3 20 -8 22 -38 19 -87 -9 -125 -6 -125 9 0 9
16 17 45 22 71 12 94 60 32 66 -35 4 -38 10 -19 36 23 32 59 17 84 -36 20 -43
31 -52 105 -89 113 -56 111 -54 82 -96 -36 -53 -63 -73 -101 -73 -36 0 -40 6
-19 29 8 9 18 29 22 45 l7 28 -47 -27 c-25 -15 -46 -24 -46 -21 0 4 -43 -16
-95 -44 -53 -27 -105 -50 -117 -50 -19 0 -20 4 -14 50 5 40 4 50 -8 50 -8 0
-17 -4 -20 -9 -10 -15 -94 -51 -120 -51 -34 0 -42 -17 -19 -43 11 -12 23 -30
26 -39 8 -21 23 -22 57 -3 35 20 48 18 55 -6 6 -17 13 -20 39 -16 17 3 38 8
48 12 11 5 20 -2 30 -22 19 -40 42 -40 85 3 34 32 109 74 134 74 5 0 9 -11 9
-24 0 -17 -14 -33 -52 -60 -29 -20 -75 -53 -103 -72 -48 -34 -53 -36 -110 -29
-74 8 -65 8 -96 6 -15 0 -39 -13 -54 -28 -39 -40 -77 -63 -102 -63 -30 0 -29
5 12 70 35 54 46 109 23 111 -7 0 -41 3 -74 5 -56 5 -62 4 -67 -15 -4 -17 -13
-21 -48 -21 l-42 0 37 37 c20 20 39 46 41 57 5 19 12 62 14 77 2 13 57 29 111
34 41 3 60 10 73 26 22 27 21 31 -4 63 -15 19 -29 26 -52 25 -43 -1 -57 -8
-108 -53 -74 -65 -130 -82 -137 -42 -5 26 26 55 94 88 34 16 61 35 60 41 -7
46 -42 45 -113 -4 -30 -21 -53 -29 -75 -27 -38 4 -45 30 -16 58 32 29 17 49
-31 43 -47 -6 -55 11 -21 42 30 27 120 20 120 -10 0 -25 32 -34 68 -20 17 8
32 19 32 24 0 23 -78 62 -124 64 -25 1 -46 4 -46 8 0 9 39 19 80 19 46 0 80
10 80 22 0 10 -160 4 -197 -8 -16 -5 -16 -4 2 10 54 44 57 48 50 69 -12 39 -7
58 33 110 49 65 54 81 40 112 -10 22 -8 29 14 53 14 15 35 57 48 94 26 82 45
96 80 64 14 -13 36 -30 50 -39z m-833 -73 c3 -8 2 -26 -1 -40 -6 -22 -11 -25
-34 -19 -15 4 -31 7 -36 8 -6 1 -18 -20 -26 -48 -20 -62 -43 -66 -50 -10 -10
73 9 110 65 125 30 9 76 -1 82 -16z m-187 -113 c0 -26 -38 -71 -61 -71 -38 0
-12 79 31 92 21 7 30 0 30 -21z m174 -172 c14 -57 1 -85 -54 -122 -53 -34 -56
-43 -39 -91 14 -38 -1 -100 -32 -140 -19 -25 -23 -26 -37 -12 -11 11 -15 37
-14 108 2 136 28 229 47 168 14 -44 40 -14 47 52 6 56 23 80 52 76 15 -2 24
-14 30 -39z m-189 -29 c12 -37 -38 -101 -66 -84 -16 9 -10 43 10 54 11 5 23
19 26 30 8 25 22 26 30 0z m-28 -134 c-3 -8 -11 -33 -18 -56 -10 -32 -20 -44
-45 -55 -26 -11 -35 -22 -44 -57 -19 -74 -21 -78 -35 -78 -39 0 -25 97 20 132
14 11 25 28 25 39 0 30 17 57 48 73 35 19 56 20 49 2z m-17 -336 c0 -22 -9
-41 -29 -61 -34 -33 -43 -35 -61 -14 -24 28 -8 102 32 152 15 19 58 -38 58
-77z m-52 -207 c-2 -28 -7 -46 -13 -43 -10 5 -11 17 -2 60 7 32 6 30 12 30 3
0 5 -21 3 -47z m-91 5 c20 -40 22 -68 6 -83 -44 -44 -76 16 -48 88 10 24 30
21 42 -5z"/>
<path d="M3120 4161 c-75 -24 -143 -85 -155 -139 -24 -110 103 -272 215 -272
84 0 170 99 170 197 0 79 -42 162 -98 195 -35 21 -98 30 -132 19z m49 -65 c26
-31 -25 -74 -76 -64 -24 5 -28 35 -7 59 20 22 66 25 83 5z"/>
<path d="M2253 4233 c-20 -7 -15 -27 12 -53 16 -15 23 -30 20 -41 -5 -16 -2
-17 32 -7 21 5 42 14 47 19 6 5 14 5 20 0 13 -11 37 -14 88 -12 31 1 40 6 53
31 8 16 15 33 15 39 0 5 -53 11 -122 13 -68 2 -130 7 -138 10 -8 4 -21 4 -27
1z"/>
<path d="M2584 4150 c-12 -5 -25 -13 -28 -18 -8 -14 32 -52 48 -46 12 4 36 53
36 70 0 7 -35 3 -56 -6z"/>
<path d="M2190 4080 c0 -12 61 -41 72 -34 4 3 35 -3 69 -12 60 -17 62 -17 76
2 30 41 15 49 -105 52 -76 2 -112 -1 -112 -8z"/>
<path d="M2357 3854 c-16 -16 -5 -25 26 -22 17 2 31 8 30 13 -3 12 -46 19 -56
9z"/>
<path d="M2437 3704 c-3 -4 -17 -8 -29 -9 -13 -1 -28 -3 -34 -4 -16 -2 -54
-40 -54 -55 0 -10 22 -7 90 12 69 20 90 30 88 41 -3 16 -48 27 -61 15z"/>
<path d="M2033 6355 c-33 -52 -31 -75 8 -75 13 0 19 11 24 44 12 78 3 87 -32
31z"/>
<path d="M2435 6340 c-14 -23 -14 -103 0 -123 8 -12 15 -38 15 -58 0 -54 8
-67 51 -90 56 -28 153 -154 173 -223 11 -38 25 -61 45 -75 36 -26 41 -16 31
59 -4 30 -6 63 -4 73 2 13 -6 21 -26 29 -20 6 -42 30 -70 73 -22 36 -60 79
-84 97 -60 44 -72 78 -49 140 22 62 8 81 -30 42 l-27 -27 0 41 c0 41 -13 62
-25 42z"/>
<path d="M5370 6061 c0 -5 7 -25 15 -45 18 -42 14 -43 -31 -15 l-34 21 0 -34
c0 -18 3 -50 6 -71 6 -32 8 -35 19 -20 15 21 42 11 54 -19 6 -15 5 -27 -3 -36
-16 -16 -54 -23 -61 -11 -14 22 -24 4 -35 -63 -27 -171 -58 -256 -109 -302
-33 -30 -26 -42 24 -38 26 3 52 -1 60 -8 15 -13 21 -49 8 -51 -24 -2 -57 -10
-62 -14 -3 -3 1 -22 8 -42 12 -33 12 -38 -5 -50 -10 -7 -26 -11 -36 -7 -10 3
-27 2 -39 -1 -20 -7 -19 -8 7 -42 26 -34 26 -36 9 -49 -10 -8 -24 -14 -30 -14
-16 0 -51 -40 -60 -67 -7 -24 -29 -31 -40 -13 -14 23 -41 8 -65 -38 -22 -41
-52 -66 -108 -88 -1 -1 2 -14 8 -29 6 -15 8 -30 6 -33 -3 -2 -26 3 -52 12 -34
11 -51 13 -66 5 -30 -16 -14 -46 62 -121 87 -85 113 -102 145 -94 37 9 33 54
-10 110 -19 26 -35 50 -35 56 0 5 17 8 38 7 36 -1 47 5 148 78 17 12 58 -10
75 -42 13 -24 11 -27 -19 -52 -31 -27 -31 -28 -14 -47 10 -10 33 -32 52 -47
19 -17 29 -32 24 -37 -10 -10 -62 12 -91 39 -11 10 -30 24 -43 31 -21 11 -22
11 -16 -6 4 -11 10 -31 13 -46 5 -24 2 -28 -16 -28 -28 0 -27 -14 5 -34 39
-26 45 -55 22 -97 -21 -38 -53 -59 -75 -52 -15 5 -17 46 -4 71 5 9 5 26 1 36
-6 19 -7 19 -28 -2 -27 -27 -30 -27 -59 0 -22 21 -23 21 -44 2 -27 -24 -73
-103 -65 -111 3 -3 21 6 39 20 86 66 133 37 142 -87 3 -46 1 -52 -29 -80 -18
-17 -60 -42 -92 -54 -186 -74 -355 -271 -350 -410 1 -38 -3 -53 -16 -61 -25
-15 -22 -36 8 -76 14 -19 32 -53 38 -77 7 -23 17 -43 22 -45 5 -2 20 13 33 32
25 37 33 41 96 51 56 8 83 38 95 107 16 84 6 123 -49 203 l-50 72 22 20 c57
53 108 46 164 -23 36 -43 82 -171 87 -240 8 -114 -86 -293 -171 -326 -51 -20
-132 -12 -172 16 -47 32 -51 32 -51 -6 0 -49 17 -68 92 -104 87 -42 86 -41
222 -200 101 -117 120 -145 140 -207 9 -30 -6 -20 -83 52 -84 80 -109 91 -80
38 18 -34 2 -32 -45 7 -39 32 -47 35 -52 21 -6 -16 31 -68 63 -89 24 -15 74
-98 71 -115 -3 -14 -8 -12 -28 12 -100 117 -119 129 -105 67 9 -44 79 -119
123 -132 42 -12 94 -9 99 6 2 6 -13 28 -32 50 -77 86 -65 104 18 27 29 -27 64
-59 80 -72 15 -13 27 -27 27 -31 0 -5 -19 -13 -42 -19 -56 -13 -105 -39 -112
-57 -7 -17 3 -20 70 -26 31 -2 63 -12 81 -25 16 -11 65 -31 107 -44 86 -25 87
-26 112 -129 19 -81 20 -130 1 -166 -23 -44 -35 -48 -68 -24 -35 26 -61 27
-77 1 -7 -11 -9 -21 -5 -21 5 -1 20 -3 35 -4 50 -6 187 -58 193 -73 8 -21 0
-25 -23 -13 -13 7 -22 7 -30 -1 -16 -16 -15 -34 4 -63 9 -14 14 -25 11 -25
-14 0 -106 44 -139 66 -39 27 -93 30 -93 5 0 -8 38 -36 84 -63 98 -56 175
-112 226 -165 45 -46 105 -166 105 -209 0 -28 -6 -38 -40 -59 -40 -25 -51 -44
-27 -46 14 -2 16 -1 50 5 19 3 28 0 32 -13 8 -27 -2 -43 -40 -69 -25 -15 -35
-30 -35 -47 0 -29 -3 -29 48 -11 31 11 43 12 51 3 14 -18 -7 -50 -66 -97 -29
-23 -53 -45 -53 -50 0 -17 60 -33 84 -22 30 13 66 -9 66 -42 0 -47 -48 -61
-93 -26 -35 27 -104 35 -169 19 -65 -16 -137 -19 -145 -6 -8 13 84 99 153 143
56 36 70 56 69 101 0 20 -8 28 -39 38 -50 18 -104 71 -111 109 -3 17 -7 44
-10 60 -2 16 2 44 10 64 20 46 19 59 -4 71 -14 8 -30 5 -65 -14 -72 -38 -116
-30 -116 21 0 35 -60 43 -82 11 -10 -16 2 -37 21 -37 9 0 27 -7 39 -16 18 -12
20 -19 12 -30 -10 -11 -20 -9 -62 12 -59 30 -92 29 -96 -4 -3 -17 8 -34 42
-64 45 -41 58 -67 34 -69 -29 -3 -44 5 -99 47 -64 49 -95 55 -108 22 -12 -33
6 -74 56 -126 33 -35 46 -43 55 -34 14 14 0 44 -38 86 -32 34 -25 33 44 -5 69
-37 95 -59 70 -59 -18 0 -30 -22 -20 -37 4 -5 19 -13 34 -16 43 -11 73 -63 73
-127 0 -53 1 -55 25 -51 13 1 35 12 49 22 26 21 81 26 81 7 0 -7 -23 -36 -52
-65 l-52 -52 38 -36 c44 -42 44 -69 -2 -99 -50 -33 -55 -50 -23 -84 15 -17 34
-41 43 -53 l15 -23 42 19 42 19 35 -38 c29 -32 39 -37 62 -31 15 3 37 16 49
27 26 24 75 117 68 128 -3 4 -37 -1 -77 -11 -171 -45 -268 -17 -203 59 22 25
29 27 103 28 45 1 94 7 110 13 24 10 39 10 83 -3 29 -9 62 -16 74 -16 12 0 29
-6 40 -13 17 -13 15 -17 -30 -58 -123 -113 -128 -123 -79 -149 42 -23 30 -45
-38 -70 -108 -38 -139 -53 -150 -73 -13 -25 -1 -36 45 -44 28 -4 49 1 93 23
48 24 58 26 76 15 28 -17 37 -5 42 58 4 51 19 82 32 69 3 -4 8 -32 11 -64 8
-87 16 -109 41 -112 20 -3 22 1 23 50 0 29 3 76 5 103 11 149 5 304 -15 405
-11 58 -22 116 -25 130 -2 14 -16 79 -30 145 -67 303 -76 346 -81 396 -12 117
-15 132 -33 172 -20 43 -78 111 -121 140 -20 13 -22 19 -11 32 14 17 18 152 7
250 -8 76 -34 162 -58 197 -23 32 -24 62 -3 119 74 210 100 648 59 1034 -2 22
-7 72 -10 110 -7 79 -14 155 -20 200 -2 17 -7 59 -11 95 -3 36 -12 84 -19 107
-23 76 -15 103 56 184 113 130 272 382 332 525 59 140 72 201 72 339 0 150
-13 200 -77 295 -48 73 -72 89 -88 60 -8 -14 -8 -26 0 -40 7 -13 7 -20 1 -20
-6 0 -31 30 -57 66 -50 70 -120 124 -161 124 -13 0 -23 -4 -23 -9z m-240
-1696 c0 -8 -13 -29 -30 -47 -34 -35 -38 -48 -12 -43 9 2 20 4 23 4 3 1 23 16
43 35 23 22 36 29 36 20 0 -25 -37 -88 -60 -102 -32 -20 -15 -31 31 -19 30 7
48 20 68 48 31 45 45 45 47 -2 2 -43 10 -102 23 -159 9 -45 20 -105 26 -147 2
-13 6 -42 10 -65 9 -50 10 -264 1 -304 -3 -16 -8 -49 -11 -73 -9 -60 -47 -206
-85 -321 -24 -73 -31 -112 -31 -168 1 -92 -6 -105 -29 -54 -10 22 -29 46 -42
53 -22 12 -38 28 -38 40 0 3 16 26 36 52 29 38 35 51 29 75 -7 34 -44 75 -46
51 -3 -60 -22 -109 -41 -109 -21 0 -68 53 -68 77 0 22 3 24 34 19 58 -9 53 17
-11 63 -34 23 -43 58 -19 67 16 6 130 -41 159 -65 17 -14 20 -14 33 3 19 27 6
39 -69 66 -34 13 -75 33 -92 45 -54 39 -59 40 -52 16 9 -34 -2 -51 -33 -51
-21 0 -37 11 -64 44 -20 24 -36 48 -36 52 0 4 24 31 53 59 40 37 60 67 78 115
15 40 31 66 42 68 9 2 39 -15 66 -38 l48 -41 37 22 c20 11 36 25 36 30 0 9
-35 30 -47 28 -4 -1 -32 -1 -60 0 -39 1 -59 7 -73 21 -26 26 -26 56 0 70 16 9
31 5 77 -20 58 -30 93 -38 93 -21 0 21 -38 52 -70 57 -53 8 -114 46 -118 72
-4 25 9 28 54 12 70 -24 144 -17 144 15 0 26 -46 29 -147 9 -8 -1 -13 9 -13
24 0 15 -7 36 -15 46 -23 30 -18 55 12 67 l26 10 -26 27 c-33 34 -33 37 -2 74
34 40 32 48 -11 48 -29 0 -35 3 -30 15 5 13 -1 15 -35 10 -23 -4 -53 -11 -68
-16 -37 -15 -90 -19 -97 -7 -16 25 44 60 186 108 52 18 102 36 110 41 20 11
20 11 20 -6z m-451 -381 c9 -20 7 -25 -9 -34 -26 -14 -60 -13 -60 3 0 20 27
54 44 54 8 0 19 -11 25 -23z"/>
<path d="M5175 4155 c-36 -31 -38 -35 -20 -41 55 -20 74 -73 33 -95 -21 -11
-21 -12 12 -40 18 -16 37 -26 42 -23 21 13 -4 237 -25 234 -1 -1 -20 -16 -42
-35z"/>
<path d="M5033 3603 c-24 -5 -41 -43 -28 -63 4 -6 18 -15 31 -20 16 -6 27 -20
31 -40 6 -34 9 -37 46 -44 44 -8 53 17 18 56 -16 19 -33 47 -37 64 -7 31 -22
55 -33 53 -3 -1 -16 -4 -28 -6z"/>
<path d="M5217 3555 c-42 -29 -42 -29 -22 -49 11 -11 13 -21 5 -40 -10 -27 -4
-56 11 -56 5 0 9 9 9 20 0 11 11 47 25 80 14 33 25 62 25 65 0 11 -16 4 -53
-20z"/>
<path d="M5221 5801 c-6 -11 -11 -31 -11 -45 0 -21 5 -26 24 -26 26 0 36 21
26 59 -7 32 -26 37 -39 12z"/>
<path d="M5156 5705 c-9 -14 -27 -53 -39 -88 -16 -45 -30 -67 -54 -82 -40 -26
-65 -66 -53 -85 16 -26 11 -58 -10 -65 -26 -8 -40 1 -40 26 0 30 -28 20 -63
-23 l-30 -37 21 -34 c26 -44 39 -94 41 -156 2 -52 21 -24 23 32 0 30 -7 57
-20 80 -17 26 -19 36 -10 45 7 7 15 12 20 12 11 0 30 -39 43 -89 10 -41 12
-43 27 -27 19 18 38 77 38 117 0 29 17 49 42 49 27 0 39 31 26 73 -14 46 -6
65 37 83 35 14 37 19 38 84 1 115 -7 131 -37 85z"/>
<path d="M2857 5703 c-4 -3 -7 -19 -7 -33 0 -15 -7 -43 -15 -62 -8 -20 -16
-48 -19 -63 -6 -35 19 -92 44 -100 38 -12 80 -62 80 -94 0 -29 2 -31 20 -21
25 13 26 56 3 107 -22 46 -33 55 -50 41 -9 -7 -17 -7 -29 2 -19 17 -10 83 17
122 25 35 24 60 -4 86 -25 24 -30 26 -40 15z"/>
<path d="M2589 5687 c-8 -78 -4 -122 13 -139 9 -9 21 -30 24 -44 6 -25 8 -26
20 -10 17 24 12 92 -12 149 -18 45 -43 69 -45 44z"/>
<path d="M3538 5315 c-2 -2 -68 -6 -148 -9 -80 -4 -163 -9 -185 -11 -22 -2
-71 -7 -110 -10 -38 -4 -80 -13 -92 -21 -24 -15 -22 -33 15 -118 23 -50 31
-53 95 -35 58 16 92 -2 69 -37 -4 -7 -25 -15 -46 -18 -49 -8 -66 -22 -66 -52
0 -30 33 -39 89 -24 30 8 42 17 47 35 7 30 27 37 62 24 20 -8 37 -7 65 2 31
10 45 10 70 0 45 -19 66 -16 96 13 17 16 39 26 57 26 17 0 51 15 81 35 57 39
75 42 93 20 10 -12 7 -19 -15 -39 -55 -51 -5 -54 76 -4 57 34 69 35 99 3 27
-29 82 -33 165 -11 46 12 80 13 112 1 22 -8 -6 -52 -46 -72 -30 -15 -57 -18
-166 -15 -194 4 -249 -10 -169 -44 39 -16 111 -23 284 -27 l105 -2 20 39 c11
21 31 43 45 48 33 13 126 4 173 -15 43 -19 46 -34 18 -100 -25 -59 -14 -69 73
-70 82 -1 156 25 149 53 -7 26 -45 49 -89 55 -47 6 -64 21 -64 55 0 23 8 32
41 48 49 24 67 20 71 -16 5 -45 42 -42 67 5 l20 38 -2 -50 c-1 -37 2 -50 13
-52 31 -7 51 21 57 77 7 70 17 96 42 109 15 8 20 7 25 -5 7 -18 -15 -74 -37
-92 -19 -16 -12 -42 12 -42 22 0 61 36 62 58 4 66 -7 151 -23 169 -14 17 -62
-3 -151 -64 -37 -25 -84 -51 -103 -58 -65 -22 -145 -9 -277 44 -269 108 -428
143 -704 155 -40 1 -74 2 -75 1z m422 -110 c6 -7 33 -17 58 -20 26 -4 62 -8
81 -11 43 -6 51 -11 51 -34 0 -24 -9 -26 -78 -20 -48 4 -57 8 -60 26 -2 17
-15 24 -58 33 -29 7 -54 16 -54 20 0 24 41 28 60 6z m-468 -48 c17 -26 3 -42
-37 -45 -44 -3 -83 17 -71 37 19 30 91 35 108 8z m799 -57 c26 -24 31 -33 20
-39 -8 -5 -21 -7 -30 -6 -9 2 -22 4 -28 4 -18 1 -16 71 2 71 1 0 17 -14 36
-30z"/>
<path d="M2929 5101 c-27 -22 -20 -37 23 -45 28 -5 38 7 38 45 0 25 -31 25
-61 0z"/>
<path d="M3515 5010 c-26 -28 -13 -52 27 -48 38 3 48 27 23 52 -21 21 -28 20
-50 -4z"/>
<path d="M2849 4969 c-26 -37 -15 -54 30 -44 21 4 33 14 37 30 13 52 -33 62
-67 14z"/>
<path d="M3216 4968 c-31 -29 -43 -66 -23 -74 17 -6 67 17 84 38 14 17 -1 58
-21 58 -8 0 -26 -10 -40 -22z"/>
<path d="M3320 4933 c-32 -12 -34 -46 -3 -57 20 -8 63 19 63 39 0 8 -4 15 -9
15 -5 0 -15 2 -23 4 -7 3 -20 2 -28 -1z"/>
<path d="M2944 4900 c-11 -11 -51 -31 -90 -45 -84 -29 -119 -57 -105 -82 24
-44 145 -143 175 -143 9 0 41 22 69 49 72 67 83 72 129 55 45 -16 75 -11 101
15 29 29 15 51 -31 51 -33 0 -45 6 -69 35 -34 40 -48 39 -93 -6 -26 -27 -50
-37 -50 -23 0 4 9 21 20 38 37 61 -7 104 -56 56z"/>
<path d="M3620 4889 c-25 -4 -76 -16 -115 -27 -38 -11 -92 -26 -120 -33 -35
-9 -65 -28 -106 -65 -31 -28 -73 -57 -93 -64 -37 -12 -65 -46 -49 -60 4 -5 27
-11 49 -15 41 -5 43 -4 77 42 58 79 81 96 129 95 24 0 85 -14 136 -31 98 -33
109 -32 146 8 11 12 25 21 31 21 7 0 18 6 25 14 19 23 -46 31 -93 11 -40 -16
-121 -15 -139 3 -6 6 -8 18 -5 27 6 13 26 15 159 11 116 -3 159 -1 179 10 25
13 45 42 35 52 -8 7 -197 8 -246 1z"/>
<path d="M4199 4834 c-10 -13 -9 -24 8 -64 18 -43 19 -51 6 -61 -21 -18 -12
-59 18 -82 22 -16 30 -17 49 -7 17 9 28 8 55 -4 18 -9 47 -16 63 -16 22 0 37
-8 51 -27 28 -37 30 -40 71 -66 34 -22 54 -67 30 -67 -7 0 -25 9 -40 20 -43
31 -101 53 -112 42 -12 -12 40 -65 80 -81 39 -16 41 -35 5 -58 -16 -9 -30 -18
-32 -20 -3 -2 7 -16 21 -31 14 -15 37 -44 51 -65 38 -59 59 -7 28 71 -22 54
-22 61 -10 84 7 13 17 16 38 12 32 -7 51 15 51 56 0 23 27 38 45 24 63 -47 65
-48 82 -31 15 14 15 18 -1 41 -17 28 -32 32 -56 16 -17 -11 -30 4 -30 38 0 30
-12 28 -50 -8 -18 -17 -35 -28 -38 -25 -3 3 -6 20 -7 39 -2 65 -42 88 -175
101 -98 10 -111 20 -127 89 -12 55 -35 96 -53 96 -4 0 -13 -7 -21 -16z"/>
<path d="M3876 4768 c-14 -20 -14 -23 -1 -31 24 -13 17 -34 -15 -47 -36 -15
-52 -40 -40 -60 7 -11 17 -8 52 14 24 16 54 39 68 52 l26 24 72 -36 c85 -43
104 -41 92 10 -4 19 -6 37 -3 40 7 6 -31 25 -59 30 -13 2 -40 -5 -61 -16 l-38
-19 -35 30 c-19 17 -37 31 -39 31 -2 0 -11 -10 -19 -22z"/>
<path d="M4418 4779 c-24 -13 -23 -42 2 -64 14 -12 39 -19 80 -21 52 -3 60 -1
60 14 0 23 -19 42 -43 42 -10 0 -30 9 -44 20 -29 23 -32 23 -55 9z"/>
<path d="M3300 4644 c0 -36 16 -61 50 -79 40 -21 38 -21 70 10 26 25 35 27
100 26 95 -1 113 -11 69 -39 -19 -11 -51 -41 -72 -66 -38 -46 -38 -46 -15 -55
42 -16 89 18 120 87 26 58 50 56 76 -8 12 -28 28 -53 38 -57 18 -7 55 13 124
64 l45 34 13 -38 c7 -21 19 -46 27 -57 16 -20 73 -31 94 -17 12 8 9 16 -17 46
-22 24 -32 46 -32 68 0 70 -56 77 -141 17 -32 -22 -66 -40 -76 -40 -11 0 -35
18 -53 41 -45 57 -75 66 -223 68 -71 1 -140 6 -154 12 -37 14 -43 11 -43 -17z"/>
<path d="M2053 4550 c-13 -5 -23 -15 -23 -21 0 -7 -8 -21 -17 -31 -21 -24 -5
-41 30 -33 17 5 30 19 40 43 21 51 14 60 -30 42z"/>
<path d="M4136 4546 c-57 -16 -66 -36 -33 -79 15 -20 27 -40 27 -46 0 -18 36
-13 61 8 l24 19 -24 26 c-26 28 -23 30 34 26 45 -3 52 -16 25 -45 -35 -37 -27
-114 11 -115 11 0 87 64 93 78 9 20 -17 53 -39 51 -33 -2 -35 0 -25 25 14 38
-8 58 -66 61 -27 1 -67 -3 -88 -9z"/>
<path d="M3744 4401 l-31 -19 4 -97 c4 -116 13 -140 38 -102 13 20 16 41 12
89 -3 41 0 75 9 97 18 44 7 55 -32 32z"/>
<path d="M4590 4377 c0 -9 4 -18 9 -21 5 -3 18 -26 30 -51 22 -46 45 -57 69
-33 18 18 14 40 -17 75 -31 37 -91 56 -91 30z"/>
<path d="M4314 4275 c-9 -22 14 -44 38 -40 33 7 43 22 28 40 -16 19 -59 20
-66 0z"/>
<path d="M4256 4231 c-8 -12 8 -54 25 -68 8 -6 25 -13 39 -15 20 -2 26 2 28
20 2 14 -2 22 -11 22 -8 0 -20 7 -27 16 -19 22 -48 36 -54 25z"/>
<path d="M3847 4144 c-4 -4 -4 -35 -1 -69 4 -40 3 -65 -4 -69 -11 -7 -25 23
-20 45 4 18 -28 23 -35 5 -10 -25 5 -56 34 -72 16 -8 29 -19 29 -25 0 -14 69
-42 86 -35 17 6 5 44 -27 85 -17 22 -20 34 -14 78 4 33 3 53 -3 53 -6 0 -17 2
-24 5 -8 3 -17 2 -21 -1z"/>
<path d="M1728 4032 c-23 -48 -24 -92 -3 -92 9 0 19 8 22 18 4 9 13 23 20 30
17 17 12 76 -7 79 -9 2 -22 -13 -32 -35z"/>
<path d="M4257 3983 c-15 -15 -5 -43 24 -67 34 -29 70 -34 89 -11 7 8 21 15
31 15 22 0 45 38 31 52 -10 10 -62 -9 -62 -24 0 -18 -28 -6 -38 17 -8 18 -19
25 -40 25 -16 0 -32 -3 -35 -7z"/>
<path d="M4071 3919 c-18 -4 -40 -14 -49 -23 -14 -14 -14 -17 2 -35 18 -19 25
-20 63 -7 25 8 48 62 30 69 -7 2 -27 0 -46 -4z"/>
<path d="M1625 3844 c-11 -12 -15 -27 -11 -53 3 -20 5 -42 6 -49 0 -30 20 2
20 34 0 22 7 40 20 51 11 10 20 21 20 25 0 14 -38 8 -55 -8z"/>
<path d="M3861 3639 l-24 -9 23 -25 c13 -13 57 -38 99 -56 123 -51 119 -47 82
-76 -35 -28 -38 -47 -14 -98 l17 -37 -52 -49 c-28 -27 -52 -55 -52 -63 0 -8
14 -24 30 -36 17 -12 30 -28 30 -37 0 -14 -3 -14 -25 1 -35 23 -62 20 -81 -9
-20 -30 -33 -31 -85 -5 -22 12 -44 18 -50 15 -5 -4 -8 -32 -6 -63 4 -61 0 -92
-13 -92 -4 0 -10 14 -13 30 -5 24 -12 30 -32 30 -36 0 -45 -43 -18 -90 29 -50
34 -95 9 -95 -13 0 -24 15 -39 55 -22 61 -30 70 -58 63 -25 -7 -24 -35 1 -58
44 -39 12 -75 -43 -48 -16 8 -40 13 -55 11 -39 -4 -38 -47 3 -68 63 -32 137
-81 222 -148 99 -78 121 -89 130 -66 7 19 -29 58 -102 110 -53 38 -72 61 -60
72 14 14 79 -37 169 -134 54 -58 109 -112 122 -121 38 -24 49 -11 20 24 -45
53 -30 75 16 23 28 -32 58 -40 58 -15 0 9 -21 38 -47 66 -25 27 -44 52 -41 54
7 7 99 -62 120 -90 11 -14 19 -47 21 -84 4 -78 14 -88 58 -58 60 40 133 170
156 277 15 70 5 412 -13 441 -2 3 -6 21 -9 40 -14 82 -74 270 -105 327 -39 73
-66 92 -129 92 -33 0 -43 -5 -61 -30 -19 -26 -24 -28 -48 -19 -15 6 -36 18
-47 28 -30 27 -38 29 -64 20z m363 -276 c8 -20 -11 -43 -35 -43 -22 0 -35 36
-19 54 13 17 46 10 54 -11z m-49 -202 c30 -80 49 -102 63 -74 5 10 8 28 6 40
-10 60 49 19 60 -42 6 -28 4 -40 -9 -49 -16 -11 -16 -16 -2 -64 27 -90 1 -238
-53 -304 -17 -22 -19 -22 -26 -4 -4 10 -2 44 4 75 14 80 7 137 -29 221 -17 41
-37 92 -43 114 -16 51 -20 156 -7 156 5 0 21 -31 36 -69z m-306 -127 c35 -45
24 -93 -18 -79 -26 8 -60 102 -44 119 9 8 39 -11 62 -40z"/>
<path d="M2828 3168 c-32 -14 -50 -29 -59 -49 -15 -38 -7 -45 33 -29 44 18 57
28 74 61 19 37 8 41 -48 17z"/>
<path d="M4477 3154 c-13 -13 -7 -62 9 -78 32 -33 47 -11 28 43 -12 36 -25 47
-37 35z"/>
<path d="M2936 3081 c-21 -17 -46 -31 -55 -31 -40 0 -108 -66 -73 -71 39 -6
102 -5 121 3 17 6 30 4 47 -7 29 -19 47 -19 83 0 26 13 30 13 41 0 7 -8 19
-15 27 -15 18 0 10 46 -13 71 -8 8 -14 28 -14 43 l0 27 -42 -34 c-68 -54 -76
-54 -80 -1 l-3 46 -39 -31z"/>
<path d="M2620 3080 c-26 -6 -33 -26 -17 -47 6 -8 16 -9 34 -2 13 5 28 7 33 4
13 -8 40 24 33 40 -5 15 -34 17 -83 5z"/>
<path d="M3430 2993 c-36 -25 -49 -45 -50 -75 0 -23 4 -28 23 -28 41 0 71 43
68 98 -1 26 -9 27 -41 5z"/>
<path d="M2596 2934 c-21 -21 -20 -42 4 -82 24 -39 26 -72 5 -72 -28 0 -15
-37 28 -77 23 -22 49 -50 57 -62 16 -23 37 -27 85 -16 28 6 31 4 43 -29 16
-43 51 -56 85 -32 12 9 31 22 42 30 35 24 62 4 80 -59 19 -63 35 -75 74 -53
14 9 33 13 41 10 31 -10 61 -47 67 -84 7 -44 12 -49 40 -42 26 7 43 43 33 70
-10 26 -66 80 -122 115 -83 54 -148 113 -148 134 0 24 -60 85 -107 109 -35 18
-76 9 -86 -18 -6 -16 54 -76 77 -76 13 0 26 -20 26 -41 0 -20 -48 -7 -71 19
-13 15 -34 36 -47 46 -21 19 -23 19 -56 1 -41 -22 -66 -14 -66 19 0 20 7 27
28 32 15 4 47 20 71 36 25 17 60 32 78 35 74 12 12 67 -87 77 -8 0 -16 -8 -18
-19 -7 -36 -19 -37 -53 -7 -32 27 -71 52 -83 52 -2 0 -12 -7 -20 -16z"/>
<path d="M4660 2915 c-18 -22 6 -79 29 -69 9 4 33 10 54 13 42 7 51 18 25 35
-13 8 -23 8 -38 -2 -27 -17 -30 -16 -30 13 0 28 -21 33 -40 10z"/>
<path d="M3053 2803 c-7 -3 -13 -10 -13 -17 0 -31 92 -150 198 -258 132 -134
140 -145 119 -161 -22 -18 -29 -51 -14 -71 11 -15 118 -66 140 -66 15 0 6 47
-22 105 -27 59 -75 124 -142 195 -57 61 -81 101 -68 116 15 18 41 18 85 -1 28
-11 35 -19 32 -37 -2 -19 -8 -22 -30 -20 -16 2 -28 -1 -28 -5 0 -15 62 -69
123 -107 67 -43 74 -38 63 52 -11 90 -27 130 -68 171 -48 49 -86 58 -94 25 -8
-32 -23 -30 -75 9 -24 19 -60 42 -79 52 -33 17 -101 27 -127 18z"/>
<path d="M4930 2740 c0 -11 12 -27 28 -37 36 -23 43 -35 30 -50 -16 -20 -36
-15 -54 12 -18 28 -55 33 -73 11 -9 -11 -4 -19 24 -40 19 -15 35 -33 35 -40 0
-7 9 -21 20 -31 17 -15 24 -16 50 -5 28 12 36 28 31 67 -1 6 9 13 21 15 15 2
24 11 26 26 3 17 -4 26 -30 37 -18 8 -46 23 -63 35 -38 25 -45 25 -45 0z"/>
<path d="M4828 2533 c-13 -28 -22 -31 -145 -58 -16 -4 -23 -13 -23 -29 0 -33
15 -43 100 -61 41 -9 87 -18 101 -21 26 -6 34 -1 71 45 13 15 29 21 58 21 39
0 45 6 40 40 -4 29 -42 58 -99 74 -77 22 -88 20 -103 -11z"/>
<path d="M3557 2524 c-11 -11 22 -62 44 -69 36 -12 42 9 14 44 -26 30 -45 38
-58 25z"/>
<path d="M4504 2504 c-56 -20 -160 -114 -151 -137 7 -20 28 -14 72 18 49 36
98 58 127 57 30 -1 34 10 18 52 -11 30 -11 30 -66 10z"/>
<path d="M3898 2505 c-12 -13 6 -54 28 -64 59 -26 79 -3 34 39 -31 29 -50 36
-62 25z"/>
<path d="M2378 2436 c-50 -13 -98 -41 -98 -56 0 -5 15 -13 33 -18 36 -10 64 2
106 45 31 33 16 44 -41 29z"/>
<path d="M2454 2395 c-8 -20 3 -33 42 -50 39 -16 42 -31 14 -77 -12 -21 -20
-51 -20 -80 0 -42 3 -49 28 -61 15 -8 43 -17 63 -21 36 -6 67 -32 88 -73 15
-30 4 -29 -50 5 -57 36 -110 55 -122 43 -16 -16 2 -45 46 -73 58 -37 97 -71
97 -86 0 -18 -52 -15 -80 5 -45 32 -85 16 -95 -37 -3 -17 -1 -20 13 -15 38 15
52 12 89 -14 40 -29 56 -30 104 -11 33 14 36 21 59 130 12 58 14 89 8 98 -6 6
-43 30 -82 53 -77 44 -105 74 -87 92 8 8 23 1 52 -22 31 -25 204 -111 223
-111 13 0 14 36 2 63 -17 41 -189 217 -213 218 -78 6 -98 10 -119 24 -29 19
-53 19 -60 0z"/>
<path d="M3510 2370 c0 -28 72 -139 115 -179 60 -55 87 -65 130 -47 39 17 51
46 33 83 -10 22 -25 31 -74 43 -47 13 -70 26 -101 58 -22 23 -48 42 -56 42 -8
0 -22 3 -31 6 -9 4 -16 1 -16 -6z"/>
<path d="M3681 2370 c-10 -5 -7 -13 10 -29 12 -11 26 -21 31 -21 28 0 139
-140 138 -175 -1 -27 2 -36 16 -49 20 -21 88 -21 109 0 25 26 14 46 -46 86
-36 24 -68 55 -88 87 -44 72 -133 125 -170 101z"/>
<path d="M4559 2363 c-19 -8 -43 -23 -55 -33 -23 -22 -46 -25 -120 -15 -50 7
-51 7 -72 -29 -19 -33 -25 -36 -56 -32 -37 5 -53 -7 -74 -57 -15 -35 -10 -44
28 -52 45 -10 139 -76 204 -144 32 -33 62 -61 67 -61 21 0 15 21 -22 68 -21
29 -39 59 -39 67 0 24 56 18 100 -10 l40 -25 12 25 c6 14 19 26 30 27 190 18
204 17 260 -10 89 -42 112 -38 83 17 -16 32 -14 35 28 45 23 5 27 11 27 42 0
28 -8 43 -32 66 -94 87 -320 149 -409 111z m199 -77 c10 -6 10 -11 1 -22 -15
-18 -53 -18 -68 -1 -23 28 30 47 67 23z m-222 -61 c26 -14 62 -25 80 -25 21 0
42 -8 54 -20 44 -44 -11 -54 -87 -16 -26 13 -65 27 -85 31 -45 9 -74 28 -64
43 12 19 52 14 102 -13z"/>
<path d="M3854 2359 c-7 -12 68 -112 101 -133 21 -14 25 -14 39 -1 17 17 13
36 -16 78 -28 40 -110 77 -124 56z"/>
<path d="M3150 2128 c1 -20 20 -41 85 -93 33 -27 69 -60 80 -73 67 -84 70 -87
102 -73 21 8 36 26 49 54 9 23 20 46 22 51 3 5 -11 6 -31 2 -27 -5 -47 -1 -76
13 -21 11 -41 24 -43 28 -6 14 -82 68 -121 86 -45 20 -67 22 -67 5z"/>
<path d="M4051 2117 c-20 -20 -12 -37 49 -96 33 -32 60 -66 60 -75 0 -21 -19
-12 -85 43 -50 42 -75 51 -75 29 0 -17 37 -78 47 -78 5 0 21 -12 37 -26 34
-32 21 -45 -31 -34 -27 7 -39 4 -53 -10 -10 -10 -17 -24 -16 -32 11 -60 35
-76 90 -58 75 25 106 19 106 -20 0 -44 -78 -59 -180 -36 -68 16 -80 12 -80
-25 0 -24 9 -35 53 -63 117 -75 200 -101 247 -78 30 14 32 18 27 54 -4 32 -2
39 11 36 24 -5 55 -64 48 -92 -8 -32 -50 -45 -128 -42 -51 2 -81 11 -162 49
-54 26 -103 44 -108 41 -5 -3 11 -28 36 -54 47 -50 62 -89 29 -75 -10 5 -43
17 -73 27 -30 11 -61 24 -67 30 -15 12 -17 64 -4 73 9 5 37 91 46 137 5 22
-30 44 -41 26 -4 -6 -8 -42 -10 -79 -2 -38 -7 -77 -13 -87 -6 -11 -8 -22 -5
-24 2 -3 1 -23 -4 -45 -12 -52 1 -69 65 -88 57 -17 103 -57 103 -91 0 -63 39
-74 71 -19 l21 35 30 -18 c42 -24 78 -69 78 -98 0 -26 -1 -26 -90 -25 -51 1
-92 -11 -79 -23 4 -5 46 -10 105 -15 5 -1 20 -10 33 -22 12 -12 23 -19 25 -18
1 2 18 24 37 49 28 36 35 55 39 105 l5 60 62 3 c55 3 65 6 82 30 25 36 34 91
15 99 -7 3 -27 -7 -44 -21 -35 -29 -88 -46 -145 -46 -84 0 -75 31 20 65 62 23
71 30 104 79 14 21 30 45 36 52 7 10 1 23 -21 46 -35 37 -64 78 -64 90 0 5 14
8 30 8 30 0 42 21 20 35 -6 3 -17 19 -25 35 -14 26 -13 29 11 53 l25 26 -19
43 c-11 24 -28 53 -39 66 -21 23 -57 29 -68 12 -3 -5 -15 -10 -27 -10 -14 0
-18 5 -14 16 9 24 -11 51 -47 63 -55 18 -74 20 -86 8z"/>
<path d="M5067 2113 c-15 -14 -5 -24 51 -52 32 -16 64 -36 71 -45 25 -30 31
-16 11 24 -29 57 -107 100 -133 73z"/>
<path d="M5215 2100 c-3 -5 29 -39 70 -77 54 -48 78 -78 85 -103 15 -56 32
-74 63 -66 21 5 27 12 27 34 0 27 -37 95 -76 138 -33 36 -158 91 -169 74z"/>
<path d="M3496 1923 c-3 -10 -7 -35 -10 -55 -6 -50 -16 -81 -30 -90 -6 -4 -44
-8 -83 -8 -64 0 -73 -2 -73 -18 0 -10 5 -23 11 -29 6 -6 8 -16 5 -22 -12 -18
-47 -13 -80 12 -50 37 -51 38 -87 11 -22 -16 -42 -23 -56 -19 -12 3 -25 1 -28
-5 -12 -19 15 -47 83 -84 58 -31 75 -47 96 -87 31 -57 45 -68 58 -46 7 13 15
9 51 -27 78 -78 192 -111 221 -63 14 22 4 29 -95 62 -93 31 -119 48 -102 66
11 11 23 9 64 -5 55 -20 122 -17 146 7 12 12 11 21 -6 65 -24 61 -16 75 47 85
44 8 58 21 97 94 21 40 25 55 16 70 -9 16 -10 15 -11 -9 0 -30 -20 -45 -65
-48 -67 -5 -74 12 -20 48 19 12 35 26 35 30 0 8 -154 82 -170 82 -5 0 -11 -8
-14 -17z"/>
<path d="M3176 1898 c28 -92 95 -143 102 -78 2 19 -8 33 -44 63 -54 43 -68 46
-58 15z"/>
<path d="M4616 1881 c-3 -4 18 -33 47 -62 29 -30 71 -80 94 -112 50 -66 68
-73 60 -22 -8 47 -87 148 -141 180 -47 28 -52 29 -60 16z"/>
<path d="M4520 1822 c0 -10 30 -53 50 -72 85 -81 120 -150 84 -164 -34 -13
-51 -5 -68 32 -19 42 -79 112 -96 112 -21 0 21 -97 60 -138 33 -35 31 -98 -4
-138 -23 -27 -24 -28 -50 -11 -20 14 -26 26 -26 55 0 62 -53 127 -75 92 -4 -6
2 -23 12 -38 10 -15 25 -47 33 -72 14 -41 18 -45 58 -53 31 -6 54 -4 85 7 23
8 65 17 92 20 72 7 121 24 152 51 33 28 25 41 -27 50 -52 9 -69 29 -66 77 4
44 2 47 -75 110 -24 20 -57 48 -74 62 -29 25 -65 35 -65 18z"/>
<path d="M3074 1433 c-10 -11 -11 -19 -3 -34 9 -17 18 -19 62 -16 42 4 48 2
34 -7 -49 -30 -49 -29 -21 -68 29 -40 60 -56 76 -40 18 18 -2 52 -33 59 -53
10 -19 25 42 18 50 -6 59 -5 59 9 0 28 -38 50 -121 72 -70 18 -83 19 -95 7z"/>
<path d="M4780 1395 c-42 -19 -70 -44 -70 -61 0 -20 77 -37 139 -30 55 6 140
40 143 57 5 31 1 34 -47 36 -27 0 -68 4 -90 7 -26 4 -52 1 -75 -9z"/>
<path d="M4334 1322 c-16 -10 -34 -48 -27 -56 14 -14 45 -4 69 21 23 25 24 28
7 34 -24 10 -36 10 -49 1z"/>
<path d="M4305 1204 c-14 -15 -14 -17 2 -30 43 -32 102 -4 64 30 -22 20 -45
20 -66 0z"/>
<path d="M4381 1133 c-19 -16 -21 -22 -12 -45 9 -24 7 -31 -15 -52 -29 -26
-18 -44 15 -27 26 15 101 101 101 117 0 8 -9 14 -19 14 -11 0 -26 2 -34 5 -7
3 -24 -2 -36 -12z"/>
<path d="M4137 1094 c-2 -1 -99 -13 -117 -14 -12 0 39 -29 72 -39 47 -16 72
-8 99 30 l21 30 -36 -3 c-20 -1 -38 -3 -39 -4z"/>
<path d="M5033 1019 c-59 -38 -34 -72 32 -45 21 9 39 16 40 16 1 0 8 -13 15
-30 7 -16 18 -30 24 -31 6 0 20 -2 31 -4 25 -5 81 12 100 32 8 8 15 25 15 39
0 28 -21 31 -60 9 -36 -20 -49 -18 -62 10 -10 21 -18 25 -57 25 -29 0 -58 -8
-78 -21z"/>
</g>
</svg>
